<svg xmlns="http://www.w3.org/2000/svg" viewBox="0 0 128 128">
  <rect width="128" height="128" rx="24" fill="#111827"/>
  <path fill="#ffffff" d="M64 8C33.1 8 8 33.1 8 64c0 24.7 16 45.7 38.2 53.1 2.8.5 3.8-1.2 3.8-2.7 0-1.3-.1-4.8-.1-9.5-15.6 3.4-18.9-7.5-18.9-7.5-2.5-6.5-6.2-8.2-6.2-8.2-5.1-3.5.4-3.4.4-3.4 5.6.4 8.6 5.8 8.6 5.8 5 8.6 13.1 6.1 16.3 4.7.5-3.6 1.9-6.1 3.5-7.5-12.4-1.4-25.5-6.2-25.5-27.7 0-6.1 2.2-11.1 5.8-15-1.2-2.9-2.5-7.2-.5-14.9 0 0 4.7-1.5 15.4 5.7 4.5-1.2 9.2-1.9 14-1.9 4.8 0 9.5.6 14 1.9 10.7-7.3 15.4-5.7 15.4-5.7 2 7.8.7 12 .4 14.9 3.6 3.9 5.8 8.9 5.8 15 0 21.5-13.1 26.3-25.6 27.7 2 1.7 3.8 5.1 3.8 10.3 0 7.4-.1 13.4-.1 15.2 0 1.5 1 3.2 3.8 2.7C104 109.7 120 88.7 120 64c0-30.9-25.1-56-56-56z"/>
</svg>
